/* XPM */
static char * WF_wf16x16_xpm[] = {
"16 16 191 2",
"  	c None",
". 	c #921B03",
"+ 	c #E43206",
"@ 	c #932003",
"# 	c #E04008",
"$ 	c #DC4108",
"% 	c #802204",
"& 	c #E44609",
"* 	c #9D2E05",
"= 	c #881A02",
"- 	c #FF3C07",
"; 	c #AD2904",
"> 	c #852E03",
", 	c #F74D0A",
"' 	c #FA510B",
") 	c #952B05",
"! 	c #A13206",
"~ 	c #FF560B",
"{ 	c #A03C04",
"] 	c #F83C07",
"^ 	c #BF3305",
"/ 	c #A63C04",
"( 	c #C13D07",
"_ 	c #C04208",
": 	c #AB3C06",
"< 	c #BC4308",
"[ 	c #F2550B",
"} 	c #A65402",
"| 	c #C99500",
"1 	c #B98800",
"2 	c #C73405",
"3 	c #EE4108",
"4 	c #A75B02",
"5 	c #BD4107",
"6 	c #AF4006",
"7 	c #A84206",
"8 	c #BD4508",
"9 	c #824800",
"0 	c #F15E0D",
"a 	c #C54709",
"b 	c #CC9700",
"c 	c #FCBD00",
"d 	c #916A00",
"e 	c #A73204",
"f 	c #FF4709",
"g 	c #792D02",
"h 	c #EF4F0A",
"i 	c #AD4A04",
"j 	c #A75204",
"k 	c #EA5B0D",
"l 	c #712E04",
"m 	c #FF690E",
"n 	c #B44708",
"o 	c #CA9000",
"p 	c #C69200",
"q 	c #926B00",
"r 	c #953903",
"s 	c #AB3505",
"t 	c #F34E0A",
"u 	c #AF5E03",
"v 	c #A05F02",
"w 	c #F9610E",
"x 	c #AA4207",
"y 	c #FF670E",
"z 	c #AC4D05",
"A 	c #C99400",
"B 	c #FDBD00",
"C 	c #966E00",
"D 	c #553D00",
"E 	c #864202",
"F 	c #FC4509",
"G 	c #FF4C0A",
"H 	c #C73E08",
"I 	c #B67F00",
"J 	c #A47200",
"K 	c #CD4F09",
"L 	c #FF620D",
"M 	c #FA5F0D",
"N 	c #975308",
"O 	c #CA970B",
"P 	c #7A5A0C",
"Q 	c #523D10",
"R 	c #805B14",
"S 	c #735414",
"T 	c #905F00",
"U 	c #B83105",
"V 	c #D73B07",
"W 	c #AB3F04",
"X 	c #E4A900",
"Y 	c #C28F00",
"Z 	c #A03F05",
"` 	c #D74B0A",
" .	c #B53E08",
"..	c #403746",
"+.	c #0F3495",
"@.	c #2651AA",
"#.	c #3A6ABB",
"$.	c #4374C3",
"%.	c #2C4685",
"&.	c #9C6C00",
"*.	c #D69B00",
"=.	c #EDAF00",
"-.	c #FFBF00",
";.	c #EAB000",
">.	c #A77500",
",.	c #A17200",
"'.	c #E3A600",
").	c #242C54",
"!.	c #1B48AC",
"~.	c #376BC5",
"{.	c #508ADB",
"].	c #5893E2",
"^.	c #345392",
"/.	c #5B781D",
"(.	c #50761B",
"_.	c #83941F",
":.	c #7E9D16",
"<.	c #B38200",
"[.	c #B68700",
"}.	c #896500",
"|.	c #16245C",
"1.	c #2353B4",
"2.	c #344B7E",
"3.	c #485978",
"4.	c #4F6079",
"5.	c #363D5A",
"6.	c #3D751D",
"7.	c #05992A",
"8.	c #398A4A",
"9.	c #0CC924",
"0.	c #749C18",
"a.	c #F4B600",
"b.	c #B68500",
"c.	c #846000",
"d.	c #6F5400",
"e.	c #253365",
"f.	c #2B5CBA",
"g.	c #4D4E5A",
"h.	c #327420",
"i.	c #15A225",
"j.	c #F5B802",
"k.	c #479D1F",
"l.	c #379621",
"m.	c #AE8000",
"n.	c #573F00",
"o.	c #765800",
"p.	c #263468",
"q.	c #3062BF",
"r.	c #4471BC",
"s.	c #415785",
"t.	c #006629",
"u.	c #05A328",
"v.	c #C39702",
"w.	c #2F9B22",
"x.	c #2A8521",
"y.	c #3F2E00",
"z.	c #684D00",
"A.	c #DFA500",
"B.	c #DDA300",
"C.	c #23356E",
"D.	c #3366C2",
"E.	c #3C4D77",
"F.	c #505055",
"G.	c #006B2B",
"H.	c #009228",
"I.	c #078329",
"J.	c #05CA24",
"K.	c #153519",
"L.	c #D8A100",
"M.	c #FFF4D5",
"N.	c #E9AE00",
"O.	c #24366E",
"P.	c #3467C2",
"Q.	c #495265",
"R.	c #00722E",
"S.	c #009A2A",
"T.	c #00051D",
"U.	c #00081A",
"V.	c #BB8A00",
"W.	c #F9BA00",
"X.	c #C08E00",
"Y.	c #1D306A",
"Z.	c #3164C0",
"`.	c #474E63",
" +	c #004530",
".+	c #005F2F",
"++	c #372700",
"@+	c #160F00",
"#+	c #152460",
"$+	c #264C9D",
"%+	c #363C56",
". + @     # $     % & *         ",
"= - ;   > , ' )   ! ~ {         ",
"  ] ^   / ( _ :   < [ }     | 1 ",
"  2 3 4 5 6 7 8 9 0 a     b c d ",
"  e f g h i j k l m n o p c q   ",
"  r f s t u v w x y z A B C D   ",
"  E F G H I J K L M N O P Q R S ",
"  T U V W X Y Z `  ...+.@.#.$.%.",
"    &.*.=.-.;.>.,.'.).!.~.{.].^.",
"/.(._.:.-.-.c <.[.}.|.1.2.3.4.5.",
"6.7.8.9.0.a.b.| c.d.e.f.g.      ",
"h.i.j.k.l.m.n.o.    p.q.r.s.    ",
"t.u.v.w.x.y.z.  A.B.C.D.E.F.    ",
"G.H.I.J.K.    L.M.N.O.P.Q.      ",
"R.S.T.U.      V.W.X.Y.Z.`.      ",
" +.+            ++@+#+$+%+      "};
